Coordinates
version=1
nRows=18
nColumns=22
inDegrees=yes

Units are S.I. units (second, meters, Newtons, ...)
If the header above contains a line with 'inDegrees', this indicates whether rotational values are in degrees (yes) or radians (no).

endheader
time	pelvis_tilt	pelvis_list	pelvis_rotation	pelvis_tx	pelvis_ty	pelvis_tz	hip_flexion_r	hip_adduction_r	hip_rotation_r	knee_angle_r	ankle_angle_r	subtalar_angle_r	hip_flexion_l	hip_adduction_l	hip_rotation_l	knee_angle_l	ankle_angle_l	subtalar_angle_l	lumbar_extension	lumbar_bending	lumbar_rotation
      1.47000000	     -2.84637535	      7.48840081	    132.96058895	     -0.59414333	      0.91921011	      0.77770996	    -15.82338565	     13.99645783	      8.45828331	    -15.77559216	     17.97132565	     -9.16318696	     20.92949139	     -6.87163525	     -7.92268739	    -14.14505286	     10.13056757	      5.72838783	    -15.89038038	      7.45242179	     -3.56530984
      1.48000000	     -3.00189977	      7.36535065	    132.41819565	     -0.60136505	      0.91764411	      0.77025294	    -16.32781492	     13.60154751	      8.45659704	    -16.36624733	     18.30346932	     -9.12007006	     20.77255358	     -6.14631772	     -7.04877246	    -13.54065345	     10.15062033	      6.23037000	    -15.90203324	      7.19840064	     -3.59866882
      1.49000000	     -3.13404228	      7.20530417	    131.89838501	     -0.60858612	      0.91617293	      0.76258070	    -16.77389993	     13.21072896	      8.49706453	    -16.97372727	     18.55875116	     -9.04974743	     20.68250948	     -5.46681613	     -5.95720327	    -13.36239888	     10.05196545	      6.41787416	    -15.84299550	      6.91647099	     -3.63926696
      1.50000000	     -3.30696880	      7.01568343	    131.39964516	     -0.61583040	      0.91491887	      0.75465547	    -17.20566008	     12.77448351	      8.54019982	    -17.61447916	     18.62815184	     -8.91494240	     20.58985876	     -4.78934771	     -4.73720817	    -13.56266257	      9.78923798	      6.41555150	    -15.76448154	      6.55219532	     -3.69925038
      1.51000000	     -3.50725912	      6.78770344	    130.92979139	     -0.62310813	      0.91386302	      0.74650526	    -17.58995912	     12.30011909	      8.57573276	    -18.31207599	     18.54589034	     -8.54377277	     20.53559907	     -4.10571770	     -3.42200657	    -14.13169334	      9.43133750	      5.99753336	    -15.64837447	      6.11423377	     -3.78180600
      1.52000000	     -3.66046519	      6.49495242	    130.49208216	     -0.63040121	      0.91291176	      0.73819632	    -17.83920569	     11.83969541	      8.65426263	    -19.07909099	     18.31304920	     -8.18527212	     20.62889347	     -3.44187021	     -2.03025934	    -15.05548359	      8.84552817	      5.36433966	    -15.42159364	      5.65727990	     -3.87464044
      1.53000000	     -3.79480149	      6.17092273	    130.05104516	     -0.63764176	      0.91216202	      0.72966740	    -17.99692083	     11.39150440	      8.83878349	    -19.92742254	     17.86971808	     -7.63164933	     20.81554422	     -2.81401716	     -0.72628266	    -16.27269108	      8.18589792	      4.39846408	    -15.14224660	      5.16814393	     -3.95431794
      1.54000000	     -3.93820834	      5.81709820	    129.66514214	     -0.64497530	      0.91163768	      0.72098835	    -18.07615651	     10.93330815	      8.96014578	    -20.85063082	     17.20770952	     -7.00677034	     21.08772523	     -2.17492240	      0.45370787	    -17.73906293	      7.49658814	      3.35342341	    -14.82012600	      4.65017437	     -4.08170568
      1.55000000	     -4.09072855	      5.45276698	    129.29588929	     -0.65232934	      0.91138010	      0.71208799	    -18.08863888	     10.47812382	      9.10128291	    -21.86046308	     16.29366968	     -6.24023994	     21.38124582	     -1.55321645	      1.46271075	    -19.33167981	      6.93763197	      2.23197481	    -14.47538051	      4.10151329	     -4.22348740
      1.56000000	     -4.25881644	      5.09824036	    128.96128151	     -0.65972429	      0.91140872	      0.70297530	    -18.05904061	     10.03455791	      9.21479355	    -22.93492778	     15.10406605	     -5.34483577	     21.66335494	     -0.95653510	      2.27625168	    -20.99598817	      6.57045316	      1.11177675	    -14.12882145	      3.53667860	     -4.40417137
      1.57000000	     -4.46165363	      4.78297292	    128.63435182	     -0.66713658	      0.91178273	      0.69362204	    -18.02201985	      9.59531555	      9.32008455	    -24.07328787	     13.59137752	     -4.24637299	     21.83946577	     -0.40242389	      2.87242553	    -22.61760719	      6.45257203	      0.00994267	    -13.82240420	      2.95884845	     -4.58464312
      1.58000000	     -4.70594684	      4.51611370	    128.30889617	     -0.67454630	      0.91249279	      0.68403819	    -17.97738847	      9.15023242	      9.37955075	    -25.28248032	     11.74228799	     -2.95522536	     21.85947399	      0.10588529	      3.26919974	    -24.11466700	      6.58352064	     -1.01074966	    -13.57037403	      2.36768436	     -4.77167209
      1.59000000	     -4.98373985	      4.29324176	    127.97823472	     -0.68191625	      0.91349087	      0.67425563	    -17.90241917	      8.69876132	      9.39544379	    -26.56890230	      9.57712460	     -1.47795840	     21.70030868	      0.56705569	      3.50350578	    -25.41662366	      6.93369835	     -1.93452398	    -13.36368740	      1.76724872	     -4.97176906
      1.60000000	     -5.27000954	      4.13214579	    127.64397201	     -0.68921792	      0.91470715	      0.66438554	    -17.76862418	      8.25829267	      9.31959160	    -27.95699430	      7.10230065	      0.12969251	     21.37517288	      0.95333196	      3.58598616	    -26.52873989	      7.48904070	     -2.76040739	    -13.21511727	      1.20519936	     -5.18672703
      1.61000000	     -5.55287630	      4.01373454	    127.28606154	     -0.69638523	      0.91606948	      0.65449910	    -17.52371911	      7.81810077	      9.17362775	    -29.48001962	      4.37191849	      1.85087612	     20.89758561	      1.26602152	      3.52451790	    -27.42043135	      8.18940041	     -3.49769935	    -13.10715233	      0.68005228	     -5.40148009
      1.62000000	     -5.81025823	      3.92984228	    126.89814768	     -0.70335563	      0.91749416	      0.64467319	    -17.12444908	      7.38890518	      8.97251899	    -31.16176731	      1.46565627	      3.60837493	     20.30471650	      1.49091608	      3.31630909	    -28.11004428	      8.99873319	     -4.14095011	    -13.02988012	      0.20684410	     -5.62905165
      1.63000000	     -6.03085191	      3.86305280	    126.46174286	     -0.71005914	      0.91890702	      0.63497981	    -16.52021007	      6.96381361	      8.73128199	    -33.04115196	     -1.49266653	      5.33138722	     19.63306803	      1.62882228	      2.96145161	    -28.61255721	      9.86613237	     -4.68086312	    -12.97244328	     -0.21402229	     -5.85180817
      1.64000000	     -6.20451698	      3.80814656	    125.97284833	     -0.71644958	      0.92025696	      0.62546450	    -15.69052179	      6.55203164	      8.47213654	    -35.12502165	     -4.36416030	      6.89479161	     18.92087229	      1.67081926	      2.43359133	    -28.97003881	     10.76373269	     -5.10007674	    -12.93115141	     -0.57321496	     -6.10098218
